<svg width="141" height="177" viewBox="0 0 141 177" fill="none" xmlns="http://www.w3.org/2000/svg">
<path fill-rule="evenodd" clip-rule="evenodd" d="M136.19 31.6014C133.512 29.8734 129.355 30.9772 126.657 31.9991C125.617 32.3932 122.961 33.6531 120.99 35.0708C121.251 34.0886 121.484 33.0979 121.687 32.0991C122.523 27.9922 123.1 23.8076 123.378 19.6474C123.475 18.1947 123.276 16.5141 123.174 14.8725C123.282 14.7743 123.355 14.6388 123.385 14.4552C123.441 14.8266 123.38 14.8395 123.594 14.5728C125.588 12.0542 127.264 9.21647 127.496 6.09765C127.692 3.45257 125.122 -1.55084 121.473 1.91517C119.84 3.4631 120.257 14.3292 122.707 14.994C122.051 18.595 121.225 22.1899 120.192 25.7393C120.037 25.7163 119.88 25.7143 119.724 25.7324C119.739 24.85 119.741 23.8872 119.699 23.5562C119.333 20.7045 116.516 14.9156 112.026 16.0417C108.575 16.9072 110.687 20.4626 111.861 22.0187C113.749 24.5239 115.887 25.6081 118.594 26.9102C118.648 27.4487 119.059 27.7616 119.544 27.8632C117.727 33.5954 115.342 39.1863 112.222 44.4677C111.81 42.8014 111.304 40.6889 110.992 40.2688C109.465 38.2155 106.084 35.7081 102.965 36.9248C96.4126 39.4837 103.518 46.827 109.095 47.6237C109.326 47.8943 109.572 48.1118 109.832 48.2365C108.748 49.8308 107.589 51.392 106.349 52.9129C104.489 55.2007 102.49 57.4812 100.395 59.7484C100.332 57.9757 99.5053 54.025 99.2705 53.6006C97.8422 51.0232 93.7222 48.3723 90.3773 50.2052C86.6153 52.2717 90.0229 56.1722 92.1669 57.9371C93.0456 58.6608 97.3927 61.3121 98.9266 61.3234C93.8645 66.6699 88.2776 71.9251 82.5974 76.9904C83.0691 74.7237 83.6871 68.4816 83.619 67.789C83.2687 64.2134 80.4904 58.4953 75.0092 59.8912C69.6915 61.2435 72.04 67.1839 73.8584 70.0153C74.9597 71.729 76.483 73.4701 78.3205 74.6648C79.0511 75.1395 80.2751 75.4218 80.8963 75.933C81.5186 76.4453 81.2534 77.1139 81.9188 77.5965C78.849 80.322 75.7578 82.9908 72.7109 85.5855C71.2733 86.8103 69.8097 88.0112 68.3315 89.1972C67.5234 88.9143 66.3706 89.2872 66.4301 90.2543C66.4387 90.3947 66.4771 90.5159 66.5288 90.627C65.4087 91.5075 64.2814 92.3818 63.1453 93.2466C63.1714 92.9948 63.164 92.6397 63.1122 92.1494C64.2179 93.4788 63.7661 90.3876 63.8843 89.7018C64.2626 87.5027 64.9875 85.3712 64.9645 83.1278C64.9308 79.8841 62.5026 74.4477 57.3849 76.3814C52.6791 78.1564 54.3879 82.9632 56.1609 85.9765C57.2834 87.8833 58.8197 89.5857 60.4256 91.2154C61.1371 91.9383 62.0422 93.2967 62.6119 93.6521C56.2841 98.4453 49.7408 103.035 43.2931 107.716C43.2065 107.399 43.135 107.084 43.0734 106.789C43.1981 106.908 43.3676 106.964 43.5853 106.953C44.3536 103.736 49.6538 86.5715 38.6657 89.6061C31.2246 91.6671 36.4685 104.247 42.0147 108.645C38.6459 111.104 35.309 113.594 32.0501 116.159C29.692 118.014 27.4035 119.933 25.202 121.916C26.3421 119.349 27.4169 116.027 26.7144 113.383C25.6915 109.536 20.89 105.905 16.1987 108.096C7.36413 112.241 22.1342 118.663 23.8867 123.12C16.8884 129.624 10.9125 136.85 6.91744 145.079C2.57249 154.029 -1.46315 166.053 0.758768 176.063C0.294353 171.062 2.63301 164.607 3.82029 160.764C5.68035 154.744 8.32134 148.885 11.8002 143.402C17.3727 134.619 24.7308 127.162 33.2247 120.391C36.3431 121.308 39.8941 123.488 41.6654 124.133C44.9132 125.316 51.1491 127.011 53.2209 123.279C55.2578 119.609 50.0652 117.559 46.847 116.738C43.7368 115.946 40.9324 116.043 38.0303 116.695C43.353 112.705 48.8294 108.865 54.2761 104.999C59.1569 108.381 66.164 118.055 72.226 113.025C79.1824 107.252 65.888 101.394 60.2222 101.854C59.5267 101.91 58.8537 102.034 58.1975 102.203C63.9776 98.0549 69.6683 93.8212 75.0505 89.2901C78.1861 89.772 87.3387 101.346 93.5585 96.2653C96.6659 93.7272 95.6048 89.7767 92.604 87.519C89.5915 85.2515 85.2218 85.2571 81.5074 86.023C79.9017 86.3523 78.4202 86.9803 77.0389 87.7455C76.9801 87.7481 76.9238 87.7511 76.8675 87.7536C82.1638 83.2476 87.4925 78.6406 92.6251 73.8766C92.7145 73.9009 92.8064 73.9258 92.8983 73.9512C93.2083 74.2723 93.7275 74.3896 94.2033 74.3184C98.3613 75.5212 104.018 77.3016 108.34 76.5983C111.321 76.1133 114.027 74.0637 111.506 71.5429C109.456 69.4929 103.891 69.7898 101.176 70.2768C99.2953 70.6147 97.177 71.8608 95.1443 72.7321C94.9884 72.466 94.7161 72.2951 94.4057 72.2132C99.4741 67.4258 104.311 62.4731 108.698 57.3054C113.217 57.8955 119.415 62.1857 123.399 58.1826C127.555 54.0068 119.746 51.574 116.032 51.9721C114.778 52.1064 113.542 52.4073 112.348 52.8046C115.541 48.5503 117.98 44.0032 119.694 39.2281C119.737 39.2463 119.771 39.2656 119.819 39.2835C119.775 39.263 119.739 39.2408 119.697 39.2202C119.868 38.7424 120.033 38.2626 120.189 37.781C120.479 37.6443 120.75 37.5438 120.88 37.5023C119.192 38.4864 126.309 38.9645 127.642 39.054C130.589 39.2516 134.536 39.3242 136.699 37.2825C138.516 35.5674 138.412 33.0349 136.19 31.6014Z" fill="#2845AC"/>
<path d="M83.5 59C86.5 64.5 87 75 82.5 78C81.5 77 77.9001 74.5 73.5001 72.5C68.0001 70 68.5001 64.9999 70.0001 60.4999C71.5001 55.9999 80.5 53.5 83.5 59Z" fill="#F7BE94"/>
<path d="M132.901 29.094C126.735 29.9964 121 32.0938 120 37.9986C121.417 38.0793 124.35 39.0311 128.747 40.4848C134.242 42.302 137.746 39.7439 140.216 36.8762C142.686 34.0084 139.066 28.1917 132.901 29.094Z" fill="#F7BE94"/>
<path d="M73.8332 104.18C67.3534 100.027 57.8073 99.6866 54 104.68C55.2647 105.917 57.2887 107.837 60.2754 112.86C64.0087 119.139 69.2848 119.489 73.8331 118.688C78.3815 117.888 80.3131 108.334 73.8332 104.18Z" fill="#05AE58"/>
</svg>
