<svg width="187" height="192" viewBox="0 0 187 192" fill="none" xmlns="http://www.w3.org/2000/svg">
<path d="M119.509 184.837L120.398 166.217C120.738 159.073 116.192 152.604 109.352 150.506L106.722 149.7C71.7541 138.975 40.8457 117.931 18.0512 89.3261L103.879 115.649C118.846 120.24 130.332 132.307 134.179 147.483C135.439 152.453 135.836 157.605 135.354 162.709L132.877 188.937L119.509 184.837Z" fill="#05AE58"/>
<path d="M151.726 73.1188L184.7 51.5298L165.759 88.5713C155.976 107.703 136.48 119.92 114.997 120.38L103.878 115.649L151.726 73.1188Z" fill="#E68B59"/>
<path d="M86.6845 110.376L80.4481 103.504C77.3316 100.069 73.7811 97.0552 69.8878 94.5368C59.7667 87.9914 52.1545 78.2182 48.2859 66.8038L38.6762 38.4468L45.1812 45.6288C59.0885 60.984 74.1225 75.2798 90.1571 88.3969L94.6646 112.824L86.6845 110.376Z" fill="#2845AC"/>
<path d="M100.052 114.476L105.47 106.49C122.524 81.3524 142.259 58.1444 164.33 37.2739L150.387 76.9256C143.187 97.4054 125.324 112.278 103.879 115.649L100.052 114.476Z" fill="#F7BE94"/>
<path d="M94.6645 112.823L89.1541 82.9597C87.0104 71.3418 87.7004 59.3787 91.1646 48.0834C93.3177 41.0632 94.4059 33.7612 94.3934 26.4188L94.3779 16.2553L102.292 54.0755C103.031 57.6116 104.279 61.022 105.993 64.2015C109.567 70.8265 111.065 78.3735 110.293 85.862L108.639 101.884L100.801 114.707L94.6641 112.825L94.6645 112.823Z" fill="#F7BE94"/>
<path d="M108.097 68.8272C108.598 66.2646 109.24 63.7002 110.025 61.1424C114.178 47.5995 121.773 36.1494 131.398 27.6108C134.58 40.0786 134.45 53.8167 130.296 67.3596C129.092 71.2871 127.598 75.0387 125.849 78.5943L107.53 100.768L108.097 68.8272Z" fill="#E68B59"/>
</svg>
