<svg width="105" height="173" viewBox="0 0 105 173" fill="none" xmlns="http://www.w3.org/2000/svg">
<path fill-rule="evenodd" clip-rule="evenodd" d="M83.2064 88.8451C81.0614 81.6896 76.0247 76.0891 70.7963 70.9577C60.6182 60.968 55.144 54.7914 51.5164 40.1783C49.3832 31.584 47.2119 22.4766 40.4454 16.2414C35.5187 11.7007 27.0391 7.88573 20.4503 11.1372C10.3139 17.1873 7.59187 29.6031 8.61396 40.7208C9.88098 54.5003 16.3176 62.9968 28.683 68.0721C35.6505 70.9306 40.282 74.7022 44.0641 81.2744C47.0894 86.5296 48.8534 93.1103 52.6551 97.8744C58.3388 104.996 65.4515 108.162 74.2184 106.979C66.007 91.8705 56.4127 76.6202 44.8406 63.8996C43.7575 62.6207 37.3684 57.7258 38.6569 55.5463C40.0766 53.1465 46.6355 62.1612 46.589 62.1067C49.9519 65.967 53.0638 70.0691 56.1197 74.2106C56.1119 74.2146 56.1028 74.2168 56.0943 74.221C59.2406 78.4708 62.3617 82.7831 65.4234 87.1495C66.6616 88.9964 67.8667 90.867 69.0205 92.7845C70.7134 95.5981 73.4004 103.584 76.171 105.314C76.7637 105.684 77.3117 105.891 77.8241 105.976C79.7143 109.071 81.5536 112.191 83.3029 115.348C87.8711 123.592 91.7921 132.297 93.5917 141.606C94.1168 144.323 93.7452 154.485 95.5997 156.446C98.9904 160.034 97.9971 153.126 97.7944 151.041C96.1102 133.773 89.9113 119.063 80.9108 104.547C83.6758 100.935 84.0751 91.7443 83.2064 88.8451Z" fill="#05AE58"/>
</svg>
